<svg id="Ebene_1" data-name="Ebene 1" xmlns="http://www.w3.org/2000/svg" viewBox="0 0 117.4 71.87"><defs><style>.cls-1{fill:none;}.cls-1,.cls-2{stroke:#fff;stroke-miterlimit:10;stroke-width:3px;}.cls-2{fill:#323131;}.cls-3{fill:#fff;}</style></defs><path class="cls-1" d="M308.82,141.47s5.78-6,22.57,2.69c0,0,8.6,3.57,17.29,3.53l1.8,7.58L309.6,198.13l-34.13-15.85s-5.69,1.91-8.6-4.7l-26.63-10.19-1-4.26,38.69-30.72L289,134.56C290,134.76,302.25,132.22,308.82,141.47Z" transform="translate(-236.42 -130.8)"/><path class="cls-1" d="M348.68,147.69l-41.54,42.37h0s-10.6-6-11.23-6.52-11.68-9.27-23.17-8.16h0c-5.48-9.56-21.11-9.58-21.94-9.66s-11.58-2.59-11.58-2.59" transform="translate(-236.42 -130.8)"/><line class="cls-1" x1="72.39" y1="10.66" x2="36.32" y2="44.79"/><path class="cls-2" d="M350.48,155.27l1.45.45.25,1.07-41.93,44.07-35-16.23c-7.75.85-10.14-5.11-10.14-5.11l-26.72-10.79-.23-1,1.91-1.14.19.78,26.63,10.19s2.52,6.52,8.6,4.7l34.13,15.85Z" transform="translate(-236.42 -130.8)"/><path class="cls-3" d="M302.28,175.18s5.93-11,6.06-20.24l4-5,6.85,11.3-4.33,5.49L313.6,157l-3,3.64-1.88,8.66Z" transform="translate(-236.42 -130.8)"/><path class="cls-3" d="M265.35,157.94s10.56-6.68,12.38-16l3,9.28,5.33-4.75L285,151l-5.85,5-1.48-6.33S270.24,158.18,265.35,157.94Z" transform="translate(-236.42 -130.8)"/></svg>