<svg xmlns="http://www.w3.org/2000/svg" viewBox="0 0 368.58 81.45"><defs><style>.cls-1{fill:#fff;}.cls-1,.cls-2,.cls-3{stroke:#2b3540;stroke-miterlimit:10;stroke-width:3px;}.cls-2{fill:none;}.cls-3,.cls-4{fill:#2b3540;}</style></defs><g id="Ebene_3" data-name="Ebene 3"><path class="cls-1" d="M280.52,190.43s5.79-6,22.58,2.69c0,0,8.6,3.57,17.28,3.53l1.81,7.58-40.88,42.86-34.13-15.85s-5.7,1.91-8.61-4.7L212,216.35l-1-4.26,38.69-30.72,11.07,2.15C261.73,183.72,274,181.18,280.52,190.43Z" transform="translate(-208.13 -170.18)"/><path class="cls-2" d="M320.38,196.65,278.85,239h0s-10.6-6-11.23-6.52-11.68-9.27-23.17-8.16h0c-5.49-9.56-21.12-9.58-21.94-9.66s-11.58-2.59-11.58-2.59" transform="translate(-208.13 -170.18)"/><line class="cls-2" x1="72.39" y1="20.25" x2="36.32" y2="54.37"/><path class="cls-3" d="M322.19,204.23l1.44.45.26,1.07L282,249.82l-35-16.23c-7.76.85-10.14-5.11-10.14-5.11l-26.72-10.79-.24-1,1.92-1.14.19.78,26.62,10.19s2.53,6.51,8.61,4.7l34.13,15.85Z" transform="translate(-208.13 -170.18)"/><path class="cls-4" d="M274,224.14s5.93-11,6.06-20.24l3.95-5,6.84,11.29-4.33,5.5L285.3,206l-3,3.64-1.88,8.66Z" transform="translate(-208.13 -170.18)"/><path class="cls-4" d="M237.06,206.9s10.56-6.68,12.38-16l3,9.28,5.33-4.75-1.09,4.53-5.84,5-1.48-6.33S242,207.14,237.06,206.9Z" transform="translate(-208.13 -170.18)"/></g><g id="Ebene_2" data-name="Ebene 2"><path class="cls-4" d="M301.27,181.51c.07.81.2,1.7.38,2.69s.39,2.08.61,3.25l-5.94-.66a67.37,67.37,0,0,0-4.51-13.53,8.43,8.43,0,0,0,3.41-2.86,9,9,0,0,0,6,2.42v-.22l.77.22h4.4c1.9,0,4.29,0,7.15.11l32.34.55q30.79.56,34.54-3.3a20.81,20.81,0,0,0,1.54,1.66,7.85,7.85,0,0,0,1.87,1.31,66.77,66.77,0,0,0-4.4,13.64l-5.83.66c.14-1.17.29-2.27.44-3.3s.25-1.94.33-2.75q-5.18-2.64-18.48-2.31l-9.9.33A80.54,80.54,0,0,0,344.83,190q-.33,6-.33,13.26a9.39,9.39,0,0,1-.17,1.59q-.16.94-.33,2c-.11.73-.2,1.41-.27,2a12.74,12.74,0,0,0-.11,1.6,13.79,13.79,0,0,0,1,5.28c1.39,3.45,2.09,6.12,2.09,8a4.85,4.85,0,0,1-.94,2.64,5.09,5.09,0,0,0-.93,1.87c0,2.13,0,3.9.11,5.33a26.63,26.63,0,0,0,.33,3.36q1,4.4,5.28,4.4c.58,0,.58.59,0,1.76a10.79,10.79,0,0,0-.61,1.37,3.8,3.8,0,0,1-.38.83v.11c.22-.15.68-.48,1.37-1s1.67-1.21,2.92-2.09a4.72,4.72,0,0,1,2.64.72,7.48,7.48,0,0,1,2,1.92l-.66,4.29a5.3,5.3,0,0,1-2.75.44c-.88,0-2-.06-3.36-.17s-3-.31-4.89-.6-3.32-.5-4.68-.61-2.47-.16-3.35-.16-2,0-3.3.05l-4.51.17q-5.18.33-7.81.33-3,0-3-2.64a4.39,4.39,0,0,1,1-2.64c.88-.22,1.78-.42,2.69-.61s1.78-.38,2.59-.6c2.56-.66,4-1.28,4.18-1.87a16.33,16.33,0,0,0,.27-2.86c0-1.25,0-2.82-.05-4.73a39.79,39.79,0,0,1,.22-4.35,15.21,15.21,0,0,1,.88-3.79V208q0-24.53-1.21-28.38c-2.13-.22-4.27-.37-6.44-.44s-4.34-.11-6.54-.11Q305.77,179.09,301.27,181.51Z" transform="translate(-208.13 -170.18)"/><path class="cls-4" d="M397.74,248.28q-15.84,0-24.75-9.79-4.85-5.18-4.84-13.42a20.13,20.13,0,0,1,5.5-14,27,27,0,0,1,13.09-7.81,37.44,37.44,0,0,1,11.66-1.76,31.24,31.24,0,0,1,18.92,5.94q9.24,6.5,9.24,16.94a20.8,20.8,0,0,1-3.63,11.88Q414.91,248.28,397.74,248.28Zm1.1-39.66a6.29,6.29,0,0,0-4-1.37q-6.7,0-10.78,3.9T380,222a21.79,21.79,0,0,0,4.84,14.41,16.85,16.85,0,0,0,13.53,6.49q7.49,0,11.77-4.35t4.29-11.6a4.51,4.51,0,0,0-.38-2,6.22,6.22,0,0,0-1.16-1.54c-.22-.15-.62-.39-1.21-.72s-1.39-.78-2.42-1.37a10,10,0,0,1-3.19-2.86,51.5,51.5,0,0,1-3.74-5.61A16,16,0,0,0,398.84,208.62Z" transform="translate(-208.13 -170.18)"/><path class="cls-4" d="M457.69,247.29c.59.29,1.06.55,1.43.77H456.7a27.11,27.11,0,0,1-3.19-.22c-1.47-.15-2.73-.24-3.8-.28a24.67,24.67,0,0,0-2.8.06l-17.49.22.33-4.29q5.17-1,6.6-2,3-2,3-15.62,0-12.31-3-13.53a7.67,7.67,0,0,0-2.42-.5l-4.4-.38,4-6.27c.88-.15,1.91-.33,3.08-.55s2.6-.51,4.29-.88c.66-.22,1.35-.5,2.09-.83s1.54-.71,2.42-1.15a4.44,4.44,0,0,1,2-.55q3.3,0,3.3,7.15l3.08-1.21q12.21-5.17,17.6-5.17,9.24,0,12.54,6.71,12.54-5.17,21.45-5.17,10.13,0,13.31,5.94,2,4,2,15.18v17a8.65,8.65,0,0,1,.88.77,13.76,13.76,0,0,0,3.63,1.1l2,4.07H502.57l-1.21-4.07a14.7,14.7,0,0,0,5.61-2.09q2.31-1.65,2.31-15.62,0-7-1.87-10.56-2.64-4.29-9.24-4.29a39.21,39.21,0,0,0-13,2.64c.14,1.17.26,2.35.33,3.52s.11,2.35.11,3.52l.44,12.1q.1,6,.33,9,.77,1,4,1.32l-1,4.51h-7.26c-1,0-2.49,0-4.4-.11h-6.49l-1-3.74a24.65,24.65,0,0,1,5.06,0q3.4.33,3.63,0l-1.43-3.63q.11.56-2.31,1.32a6.08,6.08,0,0,1-.77.27c-.37.11-.84.28-1.43.5a.74.74,0,0,1,.22-.55q1.88-1,1.87-6a4.66,4.66,0,0,1,.27-1.38c.19-.55.46-1.22.83-2,.81-1.76,1.14-3,1-3.74,0-.22-.08-.33-.22-.33-.59,0-1.21.44-1.87,1.32L473.86,231q.11-3.3.05-6.88t-.27-7.64q-1.77-6.5-8.47-6.49-4.95,0-14.52,4.07c-.07,2.13-.13,4.05-.17,5.77s-.05,3.29-.05,4.68v5.83a90.17,90.17,0,0,0,.33,10.67c.44,1.69,2.12,3.41,5.06,5.17A16.71,16.71,0,0,0,457.69,247.29Zm2.86,1h-.11a2.93,2.93,0,0,1-.61-.06c-.18,0-.42-.09-.71-.16h1.21Z" transform="translate(-208.13 -170.18)"/><path class="cls-4" d="M541.73,231a7.86,7.86,0,0,0,2.31,5.28q4.29,5.18,13.53,5.17,6.38,0,14.85-4.84l4.29.88A36,36,0,0,1,565.27,245a33.65,33.65,0,0,1-13.31,3.3q-9.69,0-16.06-5.83t-6.27-15.73a25.7,25.7,0,0,1,6.27-17.38,21.39,21.39,0,0,1,16.83-7.7q19.14,0,23.32,15.73l.33,6.49q-5.94.88-11.06,1.21t-9.62.33c-2.06,0-3.89,0-5.5-.11s-3-.18-4.18-.33l-4.62-.66Zm18.81-22.33a7.75,7.75,0,0,0-2.86.11c-.88.15-1.69.26-2.42.33s-1.4.11-2,.11q-10,0-11.66,9.9l7.92-1.76a7,7,0,0,0,2.53.77,45.8,45.8,0,0,0,5.5,1q6.81.23,8.69-.44Q564.82,210.88,560.54,208.68Zm-11,8.69.55-.11C549.72,217.26,549.54,217.3,549.54,217.37Z" transform="translate(-208.13 -170.18)"/><path class="cls-4" d="M403.55,187.18A9,9,0,0,1,399,186l-.73-.37a.78.78,0,0,1-.33-.32l.23,3.47c0,.46.06,1,.1,1.71s.09,1.49.13,2.41a7.85,7.85,0,0,0-.16,1.59c.18.33,1.41.56,3.72.69l-1.78,1.45a8.28,8.28,0,0,0-1.09-.1c-.51,0-1.15,0-1.94,0-.57,0-1.16,0-1.75.06l-1.78.14-1.06.1a3.15,3.15,0,0,1-.57-.07l-.68-.13v-1.16l1.49-.36c.74-.15,1.14-.35,1.18-.59a13.75,13.75,0,0,0,.83-2.25,7.84,7.84,0,0,0,.26-1.88,6.93,6.93,0,0,0-.43-2.47,13.61,13.61,0,0,1-.69-4.79v-.86c0-.35,0-.76,0-1.22s0-.9.05-1.25,0-.65,0-.89v-.5a2.9,2.9,0,0,0,0-.43l-.07-1.12a2.5,2.5,0,0,0-.33-1.19c-.2-.24-1.07-.44-2.61-.59l.38-.32.38-.33a.6.6,0,0,0-.11-.16l-.27-.26a1.36,1.36,0,0,1-.24-.24.28.28,0,0,1-.1-.18c.68,0,1.37.08,2.08.1s1.41,0,2.14,0l1,0,1.43,0,1.4-.1,1,0c4.24,0,7.23.67,9,2,2,1.51,3.06,3.16,3.06,4.93a6.68,6.68,0,0,1-2,4A8.5,8.5,0,0,1,403.55,187.18Zm-3-12c-.37,0-.76,0-1.15.05s-.82.1-1.26.18l-.23,5.22v.63q0,.52,0,1.65c.31.24.61.46.91.67s.58.41.84.61a5.2,5.2,0,0,0,3.47,1.06,4.3,4.3,0,0,0,3.3-1.12,5.44,5.44,0,0,0,1.58-3.57,4.6,4.6,0,0,0-.21-1.37,8.75,8.75,0,0,0-.61-1.4Q405.67,175.23,400.59,175.23Z" transform="translate(-208.13 -170.18)"/><path class="cls-4" d="M427.45,182.1a16,16,0,0,0-.53,2.28c-.11.76-.18,1.5-.23,2.23,0,.19,0,.63,0,1.31v2.73a30,30,0,0,0,.1,3.26c.35.82.81,1.22,1.39,1.22a2.54,2.54,0,0,0,1.51-.69l.27.79a6.41,6.41,0,0,1-4.23,1.62l-.41,0-.58-.05-.49-.1c-.64,0-1-1.28-1.06-3.86q-1,3.6-5.9,3.6a7.34,7.34,0,0,1-4.72-1.55,5.18,5.18,0,0,1-2.08-4.36,7,7,0,0,1,3.13-5.71,10.27,10.27,0,0,1,6.34-2.21,4.8,4.8,0,0,1,3.4,1.36v-.78l.11,0,.12,0a15.71,15.71,0,0,0,2.84-1.36ZM416.65,185a4.24,4.24,0,0,0-1.47.81,3.38,3.38,0,0,0-1.55,2.84,5.33,5.33,0,0,0,1.61,4.06,5.84,5.84,0,0,0,4.16,1.48A3.61,3.61,0,0,0,422,193a1.67,1.67,0,0,0,.26-1.06c0-.21,0-.55-.06-1a9.89,9.89,0,0,1-.07-1c0-.79.2-1.19.6-1.19.11,0,.17,0,.19,0a6.45,6.45,0,0,1,1.52,2,.13.13,0,0,0,0-.1,5.08,5.08,0,0,0-.6-1.91,5.6,5.6,0,0,1-.63-1.85c-.19-.75-.89-1.33-2.07-1.75a9.08,9.08,0,0,0-2.88-.43A5.85,5.85,0,0,0,416.65,185Zm6.91-1.4v-.26c-.05.19-.08.35-.1.47a2.05,2.05,0,0,0,0,.28c0,.05.07.07.1.07C423.55,183.87,423.56,183.68,423.56,183.55Z" transform="translate(-208.13 -170.18)"/><path class="cls-4" d="M431.51,183.05a2.12,2.12,0,0,0,.56-1.18,1.28,1.28,0,0,0-.1-.47h1.72a1.64,1.64,0,0,0-.3-.85c0-.07.06-.23.23-.5a3.14,3.14,0,0,0,.33-.46c0-.07-.06-.1-.19-.1h-.33l.06-.53v-1.32l.86,0a1.09,1.09,0,0,0,.73-.17c.08-.09.14-.13.16-.13.26,0,.4.09.4.26a1.32,1.32,0,0,1-.09.42,3.34,3.34,0,0,1-.28.61l2.54-2a23.74,23.74,0,0,0-.82,4.75h4.36a2.46,2.46,0,0,1-.24.4c-.13.2-.32.46-.56.79a2,2,0,0,0-.46,1.16,1.6,1.6,0,0,0,.07.36h-3.3l0,.26a2.73,2.73,0,0,1,.4,1.36c0,.64,0,1.33-.05,2.09s0,1.57,0,2.43a16.58,16.58,0,0,0,.3,4.19c.13.37,1,.63,2.48.76v1.45l-4.89-.26c-1.23,0-2.64.06-4.22.19v-1.35a7,7,0,0,0,2-.49,2.09,2.09,0,0,0,1-1.65,11.71,11.71,0,0,0,.2-2.58l-.2-5.15v-1.25h-3A5.3,5.3,0,0,1,431.51,183.05Z" transform="translate(-208.13 -170.18)"/><path class="cls-4" d="M457.6,196.55c-1.25,0-2.69.09-4.34.13l.2-.06a1.38,1.38,0,0,0,.29-.13c.33-.16.48-.26.43-.3a7,7,0,0,1-.79-.05l-.82-.12c0-.3.2-.54.62-.69a4.33,4.33,0,0,0,1-.4c.35-.28.51-1.41.46-3.39a17.57,17.57,0,0,0-.36-4.33,2.89,2.89,0,0,0-3.07-2.21,4.6,4.6,0,0,0-4.46,3.33l-.06,3.8a3.22,3.22,0,0,1-.43,1.12c-.22.29-.35.43-.4.43a.59.59,0,0,0,.18.2l.32.16a3.42,3.42,0,0,1,.59.2,8.85,8.85,0,0,0,1,.38c.43.14,1,.3,1.61.48l0,1.48a15.81,15.81,0,0,0-4.09-.52,14.13,14.13,0,0,0-4,.52l-.59-1.25a11.83,11.83,0,0,1,2-.92q.56-.49.56-7.3c0-1.93-.1-4-.3-6.07-.09-1.19-.4-1.8-.92-1.85a.69.69,0,0,1-.24.07l-.49.13-1-1.29a9,9,0,0,0,5.64-2.37.24.24,0,0,1,.07.16,1.3,1.3,0,0,1-.15.55,1.29,1.29,0,0,0-.15.44c0,.09,0,.14.13.14a4.93,4.93,0,0,0,.59-.37,4.06,4.06,0,0,1,.7-.43,26.7,26.7,0,0,0-.43,2.94c-.11,1.12-.18,2.39-.2,3.8v1.25q0,.79,0,2a4,4,0,0,1,2.64-2.64,9.31,9.31,0,0,1,3.76-.73,4,4,0,0,1,4.09,2.38,13,13,0,0,1,.79,5.15v2c0,.42,0,.79,0,1.12v.82l.23.6a12.61,12.61,0,0,0,2.64.2q-.66.36-.66.72t.6.63C459.88,196.46,458.84,196.51,457.6,196.55Z" transform="translate(-208.13 -170.18)"/><path class="cls-4" d="M469.21,196.3a10.08,10.08,0,0,1-2.72.38,13.65,13.65,0,0,1-2-.19c-.85-.14-1.92-.35-3.22-.66.81-.22,1.22-.52,1.22-.89a1.6,1.6,0,0,0-.3-.59l-.23-.43a2.26,2.26,0,0,0-.43-1l-.54-.78a1.76,1.76,0,0,1-.28-.57,2.32,2.32,0,0,0,1.48.95.87.87,0,0,0,.6-.23,1.08,1.08,0,0,0,.53,1c.15.11.73.43,1.74,1a6,6,0,0,0,2.45.53,6.69,6.69,0,0,0,1.94-.3,1.12,1.12,0,0,0,.76-1.15c0-.79-.53-1.5-1.58-2.14l-1.06-.49q-.66-.3-1.65-.69a11.73,11.73,0,0,1-2.64-1.25,3,3,0,0,1-1.48-2.47q0-2.31,3.1-3.66a8.31,8.31,0,0,1,3.33-.62c.71,0,2,.09,3.93.28a.63.63,0,0,0-.07.25v.29a8.81,8.81,0,0,0,1,3.4L470.88,184a1.73,1.73,0,0,1,0,.36c0,.25-.1.37-.29.37a.65.65,0,0,1-.37-.1l-2-.76a3.82,3.82,0,0,0-.78-.26c-1.45,0-2.17.56-2.17,1.68a1,1,0,0,0,.36.82,4.83,4.83,0,0,0,1.07.61c.54.26,1.26.55,2.16.88a10.75,10.75,0,0,1,3.2,1.68,3.72,3.72,0,0,1,1.55,3,2.75,2.75,0,0,1-1.55,2.77A13.27,13.27,0,0,1,469.21,196.3Z" transform="translate(-208.13 -170.18)"/><path class="cls-4" d="M479.2,191.47a2.35,2.35,0,0,0,.69,1.58A5,5,0,0,0,484,194.6a9.25,9.25,0,0,0,4.45-1.45l1.29.27a10.8,10.8,0,0,1-3.43,2.24,10.11,10.11,0,0,1-4,1,6.83,6.83,0,0,1-4.81-1.75,6.18,6.18,0,0,1-1.88-4.72,7.67,7.67,0,0,1,1.88-5.21,6.41,6.41,0,0,1,5.05-2.31c3.82,0,6.16,1.57,7,4.72l.1,1.94c-1.19.18-2.29.3-3.32.37s-2,.1-2.88.1c-.62,0-1.17,0-1.65,0s-.91-.05-1.26-.1l-1.38-.19Zm5.64-6.7a2.59,2.59,0,0,0-.86,0c-.26,0-.51.08-.73.1s-.41,0-.59,0a3.2,3.2,0,0,0-3.5,3l2.38-.53a2.38,2.38,0,0,0,.76.23,15.72,15.72,0,0,0,1.65.3,9,9,0,0,0,2.6-.14Q486.13,185.43,484.84,184.77Zm-3.3,2.61.16,0C481.59,187.34,481.54,187.36,481.54,187.38Z" transform="translate(-208.13 -170.18)"/><path class="cls-4" d="M494.48,191.47a2.35,2.35,0,0,0,.69,1.58,5,5,0,0,0,4.06,1.55,9.25,9.25,0,0,0,4.45-1.45l1.29.27a10.8,10.8,0,0,1-3.43,2.24,10.11,10.11,0,0,1-4,1,6.83,6.83,0,0,1-4.81-1.75,6.18,6.18,0,0,1-1.88-4.72,7.67,7.67,0,0,1,1.88-5.21,6.41,6.41,0,0,1,5-2.31q5.73,0,7,4.72l.1,1.94c-1.19.18-2.29.3-3.32.37s-2,.1-2.88.1c-.62,0-1.17,0-1.65,0s-.91-.05-1.26-.1l-1.38-.19Zm5.64-6.7a2.59,2.59,0,0,0-.86,0c-.26,0-.51.08-.73.1s-.41,0-.59,0a3.2,3.2,0,0,0-3.5,3l2.38-.53a2.28,2.28,0,0,0,.76.23,15.72,15.72,0,0,0,1.65.3,9,9,0,0,0,2.6-.14Q501.41,185.43,500.12,184.77Zm-3.3,2.61.16,0C496.87,187.34,496.82,187.36,496.82,187.38Z" transform="translate(-208.13 -170.18)"/><path class="cls-4" d="M516.34,193.15c-.74-.64-1.58-1.31-2.53-2l-1.38-1c-.49-.44-.79-.66-.93-.66a.24.24,0,0,1,.07.19v1.82c0,2.16.08,3.24.23,3.27a4,4,0,0,0,.78.19,12.16,12.16,0,0,0,1.5.17l-.1,1.48a24.66,24.66,0,0,0-3-.19l-2.5,0c-.89,0-1.85.05-2.88.1v-1.39l1.15-.13a1.63,1.63,0,0,0,1.06-.4,4,4,0,0,0,.11-1c0-.59.06-1.45.09-2.57a4.25,4.25,0,0,0-.07-1.25,8.3,8.3,0,0,0,.91.56,4.69,4.69,0,0,1,.9.62q-.17-.19-.33-.42l-.36-.5a4,4,0,0,1-.66-1.58q0-7.69-.36-8.78a.6.6,0,0,0-.6-.43,2.69,2.69,0,0,0-.79-.3,2,2,0,0,0-.56.1l-.33-.76.66-.31.66-.28.66-.23a19.25,19.25,0,0,0,2.28-1,1.38,1.38,0,0,0,.48-.25l.41-.38h1.42a8.51,8.51,0,0,0-.53,3l0,3.13c0,.38-.07,2.29-.2,5.74l1.29-.67a11.73,11.73,0,0,0,1.32-.81c1.34-.86,2-1.44,2-1.75s-.51-.33-1.52-.4v-1.32l5.05,0a3.88,3.88,0,0,1,.61,0l.79.11.8.12a5.47,5.47,0,0,0,.61.05l.92,1.12a9.47,9.47,0,0,0-2.72.59,24.56,24.56,0,0,0-3.19,1.45l-3,1.65,4.92,3.9c.83.7,1.54,1.26,2.11,1.66s1,.7,1.32.88a6.12,6.12,0,0,0,2.21.66v1.48c-.44-.06-.87-.11-1.3-.13s-.88,0-1.34,0h-1.62c-1.52,0-2.88,0-4.09.1v-1.39l.41,0c.26,0,.62-.09,1.11-.18C517.72,194.37,517.08,193.79,516.34,193.15Z" transform="translate(-208.13 -170.18)"/><path class="cls-4" d="M529,191.47a2.41,2.41,0,0,0,.7,1.58,5,5,0,0,0,4.06,1.55,9.25,9.25,0,0,0,4.45-1.45l1.29.27a10.8,10.8,0,0,1-3.43,2.24,10.11,10.11,0,0,1-4,1,6.83,6.83,0,0,1-4.81-1.75,6.18,6.18,0,0,1-1.89-4.72,7.68,7.68,0,0,1,1.89-5.21,6.4,6.4,0,0,1,5-2.31q5.75,0,7,4.72l.1,1.94c-1.19.18-2.29.3-3.32.37s-2,.1-2.89.1c-.61,0-1.16,0-1.64,0s-.91-.05-1.26-.1l-1.39-.19Zm5.65-6.7a2.59,2.59,0,0,0-.86,0c-.27,0-.51.08-.73.1s-.42,0-.59,0a3.2,3.2,0,0,0-3.5,3l2.38-.53a2.28,2.28,0,0,0,.76.23,15.72,15.72,0,0,0,1.65.3,9,9,0,0,0,2.6-.14Q535.93,185.43,534.64,184.77Zm-3.3,2.61.16,0C531.39,187.34,531.34,187.36,531.34,187.38Z" transform="translate(-208.13 -170.18)"/><path class="cls-4" d="M551.22,185.53a5.14,5.14,0,0,0-.45.4,3.86,3.86,0,0,1-.71.38l-.57.18a2.21,2.21,0,0,1,.36-.76c.24-.4.59-1,1.06-1.72l0,0c-1,.81-1.5,1.23-1.55,1.25a4.25,4.25,0,0,0-2.51,1c-.3.2-.47.4-.49.6l0,.92-.17,3a9.86,9.86,0,0,0,.36,3.9,1.29,1.29,0,0,0,.83.16l.56-.06h1.75l-.13,1.55h-.27l-1.81,0-7.13.2.07-1.29c.44-.06.79-.12,1.07-.18a2.1,2.1,0,0,0,.58-.18c.44-.2.72-1,.85-2.34,0-.38,0-.88,0-1.51s0-1.39,0-2.29a8.32,8.32,0,0,0-.23-2.57c-.13-.27-.45-.4-1-.4,0,0-.1,0-.16.12l-.22.24a2.73,2.73,0,0,1-.23.25c-.08.08-.12.12-.15.12l-.85-1.88a7.73,7.73,0,0,0,6.1-2.88c.07,1,.1,1.94.1,2.84l.84-.39,1.07-.53.56-.23,1-.46a7.17,7.17,0,0,0,.68-.35l.58-.35.39.2.55.28q.35.18.81.48a1.64,1.64,0,0,1,.46,1.19c0,.22-.16.35-.46.39a3,3,0,0,0-.93.17C551.62,185.19,551.41,185.38,551.22,185.53Z" transform="translate(-208.13 -170.18)"/><path class="cls-4" d="M558.36,171.67l1,1.15c-2,1-3,1.87-3,2.58a1,1,0,0,0,.63,1,2.9,2.9,0,0,0,.4.1l.13.1.06,0a2.17,2.17,0,0,1,1.26,2,2.22,2.22,0,0,1-.78,1.76,2.73,2.73,0,0,1-1.89.68,2.43,2.43,0,0,1-2.18-1.09,7.63,7.63,0,0,1-.66-3C553.74,174.51,555.42,172.73,558.36,171.67Z" transform="translate(-208.13 -170.18)"/><path class="cls-4" d="M569.2,196.3a10.08,10.08,0,0,1-2.72.38,13.65,13.65,0,0,1-2-.19c-.85-.14-1.92-.35-3.22-.66.81-.22,1.22-.52,1.22-.89a1.6,1.6,0,0,0-.3-.59l-.23-.43a2.26,2.26,0,0,0-.43-1l-.54-.78a1.76,1.76,0,0,1-.28-.57,2.32,2.32,0,0,0,1.48.95.87.87,0,0,0,.6-.23,1.08,1.08,0,0,0,.53,1c.15.11.73.43,1.75,1a5.94,5.94,0,0,0,2.44.53,6.69,6.69,0,0,0,1.94-.3,1.12,1.12,0,0,0,.76-1.15c0-.79-.53-1.5-1.58-2.14l-1.06-.49q-.66-.3-1.65-.69a11.73,11.73,0,0,1-2.64-1.25,3,3,0,0,1-1.48-2.47q0-2.31,3.1-3.66a8.31,8.31,0,0,1,3.33-.62c.71,0,2,.09,3.93.28a.63.63,0,0,0-.07.25v.29a8.81,8.81,0,0,0,1,3.4L570.87,184a1.73,1.73,0,0,1,0,.36c0,.25-.1.37-.29.37a.65.65,0,0,1-.37-.1l-2-.76a3.82,3.82,0,0,0-.78-.26c-1.45,0-2.17.56-2.17,1.68a1,1,0,0,0,.36.82,4.83,4.83,0,0,0,1.07.61c.54.26,1.26.55,2.16.88a10.75,10.75,0,0,1,3.2,1.68,3.72,3.72,0,0,1,1.55,3,2.75,2.75,0,0,1-1.55,2.77A13.27,13.27,0,0,1,569.2,196.3Z" transform="translate(-208.13 -170.18)"/></g></svg>