<svg id="Ebene_1" data-name="Ebene 1" xmlns="http://www.w3.org/2000/svg" viewBox="0 0 368.58 81.45"><defs><style>.cls-1{fill:none;}.cls-1,.cls-2{stroke:#fff;stroke-miterlimit:10;stroke-width:3px;}.cls-2{fill:#323131;}.cls-3{fill:#fff;}</style></defs><path class="cls-1" d="M308.82,141.47s5.78-6,22.57,2.69c0,0,8.6,3.57,17.29,3.53l1.8,7.58L309.6,198.13l-34.13-15.85s-5.69,1.91-8.6-4.7l-26.63-10.19-1-4.26,38.69-30.72L289,134.56C290,134.76,302.25,132.22,308.82,141.47Z" transform="translate(-236.42 -121.22)"/><path class="cls-1" d="M348.68,147.69l-41.54,42.37h0s-10.6-6-11.23-6.52-11.68-9.27-23.17-8.16h0c-5.48-9.56-21.11-9.58-21.94-9.66s-11.58-2.59-11.58-2.59" transform="translate(-236.42 -121.22)"/><line class="cls-1" x1="72.39" y1="20.25" x2="36.32" y2="54.37"/><path class="cls-2" d="M350.48,155.27l1.45.45.25,1.07-41.93,44.07-35-16.23c-7.75.85-10.14-5.11-10.14-5.11l-26.72-10.79-.23-1,1.91-1.14.19.78,26.63,10.19s2.52,6.52,8.6,4.7l34.13,15.85Z" transform="translate(-236.42 -121.22)"/><path class="cls-3" d="M302.28,175.18s5.93-11,6.06-20.24l4-5,6.85,11.3-4.33,5.49L313.6,157l-3,3.64-1.88,8.66Z" transform="translate(-236.42 -121.22)"/><path class="cls-3" d="M265.35,157.94s10.56-6.68,12.38-16l3,9.28,5.33-4.75L285,151l-5.85,5-1.48-6.33S270.24,158.18,265.35,157.94Z" transform="translate(-236.42 -121.22)"/><path class="cls-3" d="M329.56,132.55a26.6,26.6,0,0,0,.39,2.7q.27,1.49.6,3.24l-5.94-.66a66.13,66.13,0,0,0-4.51-13.53,8.43,8.43,0,0,0,3.41-2.86,9,9,0,0,0,6.05,2.42v-.22l.77.22h4.4q2.86,0,7.15.11l32.34.55q30.79.56,34.54-3.3c.51.61,1,1.16,1.54,1.66a8.06,8.06,0,0,0,1.87,1.31,67.39,67.39,0,0,0-4.4,13.64l-5.83.66c.15-1.17.29-2.27.44-3.3s.26-1.94.33-2.75q-5.18-2.64-18.48-2.31l-9.9.33a80.51,80.51,0,0,0-1.21,10.62q-.33,6-.33,13.25a9.45,9.45,0,0,1-.16,1.6c-.11.62-.22,1.3-.33,2s-.21,1.41-.28,2a14.65,14.65,0,0,0-.11,1.59,13.79,13.79,0,0,0,1,5.28c1.39,3.45,2.09,6.12,2.09,8a4.91,4.91,0,0,1-.93,2.64,5,5,0,0,0-.94,1.87c0,2.13,0,3.91.11,5.34a26.44,26.44,0,0,0,.33,3.35q1,4.4,5.28,4.4c.59,0,.59.59,0,1.76a12,12,0,0,0-.6,1.38,3.3,3.3,0,0,1-.39.82v.11l1.38-1c.69-.51,1.66-1.21,2.91-2.09a4.7,4.7,0,0,1,2.64.72,7.48,7.48,0,0,1,2,1.92l-.66,4.29a5.28,5.28,0,0,1-2.75.44c-.88,0-2-.05-3.35-.16s-3-.32-4.9-.61-3.32-.49-4.67-.6-2.48-.17-3.36-.17-2,0-3.3.06-2.82.09-4.51.16q-5.17.33-7.81.33-3,0-3-2.64a4.39,4.39,0,0,1,1-2.64q1.32-.33,2.7-.6c.91-.19,1.77-.39,2.58-.61q3.86-1,4.18-1.87a16.15,16.15,0,0,0,.28-2.86c0-1.25,0-2.82-.06-4.73a39.47,39.47,0,0,1,.22-4.34,15.64,15.64,0,0,1,.88-3.8V159.06q0-24.52-1.21-28.38-3.19-.33-6.43-.44t-6.55-.11Q334.08,130.13,329.56,132.55Z" transform="translate(-236.42 -121.22)"/><path class="cls-3" d="M426,199.32q-15.84,0-24.75-9.79-4.84-5.17-4.84-13.42a20.17,20.17,0,0,1,5.5-14A27.08,27.08,0,0,1,415,154.33a37.44,37.44,0,0,1,11.66-1.76,31.22,31.22,0,0,1,18.92,5.94q9.24,6.5,9.24,16.94a20.8,20.8,0,0,1-3.63,11.88Q443.2,199.32,426,199.32Zm1.1-39.65a6.24,6.24,0,0,0-4-1.38q-6.71,0-10.78,3.91T408.32,173a21.85,21.85,0,0,0,4.84,14.41,16.86,16.86,0,0,0,13.53,6.49q7.49,0,11.77-4.34T442.75,178a4.51,4.51,0,0,0-.38-2,6,6,0,0,0-1.16-1.54c-.22-.15-.62-.38-1.21-.71l-2.42-1.38a10.15,10.15,0,0,1-3.19-2.86,51.5,51.5,0,0,1-3.74-5.61A15.55,15.55,0,0,0,427.13,159.67Z" transform="translate(-236.42 -121.22)"/><path class="cls-3" d="M486,198.33c.59.29,1.06.55,1.43.77H485a27.25,27.25,0,0,1-3.19-.22c-1.47-.15-2.73-.24-3.79-.27a22.89,22.89,0,0,0-2.81,0l-17.49.22.33-4.29q5.18-1,6.6-2,3-2,3-15.62,0-12.31-3-13.53a7.74,7.74,0,0,0-2.42-.49l-4.4-.39,4-6.27c.88-.15,1.91-.33,3.08-.55s2.6-.51,4.29-.88a21.85,21.85,0,0,0,2.09-.82c.73-.33,1.54-.72,2.42-1.16a4.44,4.44,0,0,1,2-.55q3.3,0,3.3,7.15l3.08-1.21q12.21-5.17,17.6-5.17,9.24,0,12.54,6.71,12.54-5.18,21.45-5.17,10.13,0,13.31,5.94,2,4,2,15.18v17.05a8.65,8.65,0,0,1,.88.77,13.76,13.76,0,0,0,3.63,1.1l2,4.07H530.86l-1.21-4.07a14.7,14.7,0,0,0,5.61-2.09q2.31-1.65,2.31-15.62,0-7-1.87-10.56-2.64-4.29-9.24-4.29a39.21,39.21,0,0,0-13,2.64c.15,1.17.26,2.35.33,3.52s.11,2.35.11,3.52l.44,12.1q.1,6,.33,9,.76,1,4,1.32l-1,4.51H510.4c-1,0-2.49,0-4.4-.11h-6.49l-1-3.74a24.65,24.65,0,0,1,5.06,0q3.41.33,3.63,0l-1.43-3.63q.11.56-2.31,1.32a5.72,5.72,0,0,1-.77.28c-.37.11-.84.27-1.43.49a.74.74,0,0,1,.22-.55q1.88-1,1.87-6.05a4.31,4.31,0,0,1,.28-1.37,20.1,20.1,0,0,1,.82-2c.81-1.76,1.14-3,1-3.74,0-.22-.07-.33-.22-.33-.59,0-1.21.44-1.87,1.32l-1.21,1.43q.11-3.3.06-6.87t-.28-7.65q-1.76-6.5-8.47-6.49-4.95,0-14.52,4.07c-.07,2.13-.13,4-.16,5.78s-.06,3.28-.06,4.67v5.83a90.17,90.17,0,0,0,.33,10.67q.66,2.53,5.06,5.17A16.71,16.71,0,0,0,486,198.33Zm2.86,1h-.11a3.64,3.64,0,0,1-.6,0l-.72-.17h1.21Z" transform="translate(-236.42 -121.22)"/><path class="cls-3" d="M570,182.05a7.86,7.86,0,0,0,2.31,5.28q4.29,5.17,13.53,5.17,6.38,0,14.85-4.84l4.29.88A36,36,0,0,1,593.56,196q-7.48,3.3-13.31,3.3-9.68,0-16.06-5.83t-6.27-15.73a25.7,25.7,0,0,1,6.27-17.38,21.39,21.39,0,0,1,16.83-7.7q19.14,0,23.32,15.73l.33,6.49q-5.94.89-11,1.21t-9.63.33c-2,0-3.89,0-5.5-.11s-3-.18-4.18-.33l-4.62-.66Zm18.81-22.33a7.75,7.75,0,0,0-2.86.11c-.88.15-1.69.26-2.42.33s-1.39.11-2,.11q-10,0-11.66,9.9l7.92-1.76a7,7,0,0,0,2.53.77,45.8,45.8,0,0,0,5.5,1c4.55.15,7.44,0,8.69-.44Q593.13,161.92,588.83,159.72Zm-11,8.69.55-.11C578,168.3,577.83,168.34,577.83,168.41Z" transform="translate(-236.42 -121.22)"/><path class="cls-3" d="M431.84,138.22a9,9,0,0,1-4.51-1.15l-.72-.38a.68.68,0,0,1-.33-.32l.23,3.47c0,.46.05,1,.1,1.71s.08,1.49.13,2.41a7.18,7.18,0,0,0-.17,1.59q.27.49,3.72.69l-1.78,1.45a8.28,8.28,0,0,0-1.09-.1c-.5,0-1.15,0-1.94,0-.57,0-1.15,0-1.75.07l-1.78.13-1.05.1a3.15,3.15,0,0,1-.58-.07l-.68-.13V146.5l1.49-.36c.75-.15,1.14-.35,1.19-.59a13.63,13.63,0,0,0,.82-2.25,7.41,7.41,0,0,0,.27-1.88A7.16,7.16,0,0,0,423,139a13.36,13.36,0,0,1-.7-4.79v-.86c0-.35,0-.76,0-1.22s0-.9.05-1.25,0-.65,0-.89v-.5a3,3,0,0,0,0-.43l-.07-1.12a2.32,2.32,0,0,0-.33-1.19c-.19-.24-1.06-.44-2.6-.59l.38-.32c.09-.09.22-.2.38-.33,0,0,0-.07-.12-.16l-.26-.26a1.44,1.44,0,0,1-.25-.24.28.28,0,0,1-.1-.18c.68,0,1.37.08,2.08.1s1.42,0,2.14,0l1,0,1.43,0,1.4-.1,1,0c4.24,0,7.23.67,9,2,2,1.51,3.07,3.16,3.07,4.93a6.64,6.64,0,0,1-2,4.05A8.5,8.5,0,0,1,431.84,138.22Zm-3-12c-.37,0-.76,0-1.15,0a12.45,12.45,0,0,0-1.26.19l-.23,5.21v.63c0,.35,0,.9,0,1.65.3.24.61.46.9.67l.85.61a5.17,5.17,0,0,0,3.46,1.06,4.26,4.26,0,0,0,3.3-1.12,5.39,5.39,0,0,0,1.58-3.57,4.65,4.65,0,0,0-.21-1.37,8.27,8.27,0,0,0-.61-1.4Q434,126.27,428.88,126.27Z" transform="translate(-236.42 -121.22)"/><path class="cls-3" d="M455.75,133.14a13.75,13.75,0,0,0-.53,2.29c-.11.75-.19,1.49-.23,2.22a11.75,11.75,0,0,0,0,1.31v2.74c0,1.71,0,2.79.1,3.25.35.82.82,1.22,1.39,1.22a2.59,2.59,0,0,0,1.52-.69l.26.79a6.39,6.39,0,0,1-4.22,1.62l-.42,0-.57-.05-.5-.1c-.64,0-1-1.28-1.05-3.86q-1,3.6-5.91,3.6a7.36,7.36,0,0,1-4.72-1.55,5.18,5.18,0,0,1-2.08-4.36,7,7,0,0,1,3.14-5.71,10.23,10.23,0,0,1,6.33-2.21,4.8,4.8,0,0,1,3.4,1.36v-.78l.12,0,.11,0a14.78,14.78,0,0,0,2.84-1.36ZM444.94,136a4.24,4.24,0,0,0-1.47.81,3.4,3.4,0,0,0-1.55,2.84,5.3,5.3,0,0,0,1.62,4.06,5.81,5.81,0,0,0,4.15,1.48,3.58,3.58,0,0,0,2.64-1.12,1.65,1.65,0,0,0,.27-1.05,9.76,9.76,0,0,0-.07-1c0-.45-.06-.8-.06-1,0-.79.19-1.19.59-1.19a.38.38,0,0,1,.2,0,6.62,6.62,0,0,1,1.52,2,.12.12,0,0,0,0-.09,5.11,5.11,0,0,0-.6-1.92,5.75,5.75,0,0,1-.62-1.85c-.2-.74-.89-1.33-2.08-1.75a9,9,0,0,0-2.87-.42A5.92,5.92,0,0,0,444.94,136Zm6.91-1.4v-.26c0,.19-.08.35-.1.47a2,2,0,0,0,0,.29.18.18,0,0,0,.1.06C451.84,134.91,451.85,134.72,451.85,134.59Z" transform="translate(-236.42 -121.22)"/><path class="cls-3" d="M459.8,134.1a2.17,2.17,0,0,0,.57-1.19,1.47,1.47,0,0,0-.1-.46H462a1.61,1.61,0,0,0-.29-.86c0-.07.05-.23.23-.5a3.14,3.14,0,0,0,.33-.46c0-.07-.07-.1-.2-.1h-.33l.06-.53v-1.32l.86,0a1.09,1.09,0,0,0,.73-.17c.09-.09.14-.13.16-.13.27,0,.4.09.4.26a1.59,1.59,0,0,1-.08.42,5.68,5.68,0,0,1-.28.61l2.54-2a23,23,0,0,0-.83,4.76h4.36a2.65,2.65,0,0,1-.23.39c-.13.2-.32.46-.56.79a1.91,1.91,0,0,0-.47,1.16,2.32,2.32,0,0,0,.07.36h-3.3l0,.27a2.78,2.78,0,0,1,.39,1.35c0,.64,0,1.33-.05,2.09s0,1.57,0,2.43a17.26,17.26,0,0,0,.29,4.19c.14.37,1,.63,2.48.76v1.45l-4.88-.26c-1.24,0-2.64.06-4.23.2v-1.36a6.46,6.46,0,0,0,2-.49,2.09,2.09,0,0,0,1-1.65,11.13,11.13,0,0,0,.2-2.58l-.2-5.14v-1.26h-3A5.08,5.08,0,0,1,459.8,134.1Z" transform="translate(-236.42 -121.22)"/><path class="cls-3" d="M485.89,147.59c-1.24,0-2.69.09-4.34.13l.2-.06a1.24,1.24,0,0,0,.3-.13q.49-.24.42-.3a7.13,7.13,0,0,1-.79,0l-.82-.12q0-.45.63-.69a4.69,4.69,0,0,0,.95-.39c.35-.29.51-1.42.46-3.4a17.57,17.57,0,0,0-.36-4.33,2.89,2.89,0,0,0-3.07-2.21,4.59,4.59,0,0,0-4.45,3.34l-.07,3.79a3,3,0,0,1-.43,1.12c-.22.29-.35.43-.39.43a.39.39,0,0,0,.18.2l.31.16a3.16,3.16,0,0,1,.59.2,10.51,10.51,0,0,0,1,.38c.44.15,1,.3,1.62.48l0,1.49a15.5,15.5,0,0,0-4.09-.53,13.79,13.79,0,0,0-4,.53l-.59-1.26a12.7,12.7,0,0,1,2-.92q.56-.49.56-7.3c0-1.93-.1-4-.3-6.07-.08-1.19-.39-1.8-.92-1.85a.7.7,0,0,1-.23.07l-.5.13-1-1.28a9,9,0,0,0,5.64-2.38.2.2,0,0,1,.07.16,1.3,1.3,0,0,1-.15.55,1.29,1.29,0,0,0-.15.44.12.12,0,0,0,.13.14,4.52,4.52,0,0,0,.6-.37,3.74,3.74,0,0,1,.69-.43,26.7,26.7,0,0,0-.43,2.94c-.11,1.12-.17,2.39-.2,3.8v1.25q0,.8,0,2a4,4,0,0,1,2.64-2.64,9.34,9.34,0,0,1,3.76-.73,4.06,4.06,0,0,1,4.1,2.38,13.15,13.15,0,0,1,.79,5.15v2c0,.42,0,.79,0,1.12v.83l.24.59a12.5,12.5,0,0,0,2.63.2q-.66.36-.66.72t.6.63C488.17,147.5,487.13,147.55,485.89,147.59Z" transform="translate(-236.42 -121.22)"/><path class="cls-3" d="M497.51,147.34a10.2,10.2,0,0,1-2.73.38,13.78,13.78,0,0,1-2-.19c-.85-.14-1.92-.35-3.22-.66.82-.22,1.22-.52,1.22-.89a1.69,1.69,0,0,0-.29-.59l-.23-.43a2.39,2.39,0,0,0-.43-1c-.22-.31-.41-.57-.55-.78a2,2,0,0,1-.28-.57,2.31,2.31,0,0,0,1.49.95.85.85,0,0,0,.59-.23,1.1,1.1,0,0,0,.53,1c.15.11.74.43,1.75,1a6.12,6.12,0,0,0,2.44.52,7,7,0,0,0,2-.29,1.15,1.15,0,0,0,.76-1.16c0-.79-.53-1.5-1.59-2.14l-1-.49q-.66-.3-1.65-.69a11.52,11.52,0,0,1-2.64-1.25,3,3,0,0,1-1.49-2.47q0-2.31,3.1-3.66a8.5,8.5,0,0,1,3.34-.62c.7,0,2,.09,3.92.28a.62.62,0,0,0-.06.26v.28a8.76,8.76,0,0,0,.95,3.4l-2.21-2.18a1.66,1.66,0,0,1,0,.37q0,.36-.3.36a.53.53,0,0,1-.36-.1l-2-.76a4.07,4.07,0,0,0-.77-.26c-1.46,0-2.18.56-2.18,1.68a1,1,0,0,0,.36.82,5.18,5.18,0,0,0,1.07.62c.54.25,1.26.54,2.17.87a10.88,10.88,0,0,1,3.2,1.68,3.75,3.75,0,0,1,1.55,3,2.77,2.77,0,0,1-1.55,2.77A13.67,13.67,0,0,1,497.51,147.34Z" transform="translate(-236.42 -121.22)"/><path class="cls-3" d="M507.49,142.51a2.35,2.35,0,0,0,.69,1.58,5,5,0,0,0,4.06,1.56,9.31,9.31,0,0,0,4.46-1.46l1.28.27a10.68,10.68,0,0,1-3.43,2.24,10.11,10.11,0,0,1-4,1,6.86,6.86,0,0,1-4.82-1.75,6.21,6.21,0,0,1-1.88-4.72,7.72,7.72,0,0,1,1.88-5.21,6.41,6.41,0,0,1,5.05-2.31q5.74,0,7,4.72l.1,2c-1.18.17-2.29.29-3.31.36s-2,.1-2.89.1c-.62,0-1.17,0-1.65,0s-.9,0-1.25-.09l-1.39-.2Zm5.64-6.7a2.59,2.59,0,0,0-.86,0,7.26,7.26,0,0,1-.72.1,4.41,4.41,0,0,1-.6,0,3.19,3.19,0,0,0-3.49,3l2.37-.53a2.38,2.38,0,0,0,.76.23,15.72,15.72,0,0,0,1.65.3,9.1,9.1,0,0,0,2.61-.14C514.56,137.25,514,136.25,513.13,135.81Zm-3.3,2.61.17,0C509.89,138.39,509.83,138.4,509.83,138.42Z" transform="translate(-236.42 -121.22)"/><path class="cls-3" d="M522.77,142.51a2.35,2.35,0,0,0,.69,1.58,5,5,0,0,0,4.06,1.56,9.31,9.31,0,0,0,4.46-1.46l1.28.27a10.68,10.68,0,0,1-3.43,2.24,10.11,10.11,0,0,1-4,1,6.84,6.84,0,0,1-4.82-1.75,6.21,6.21,0,0,1-1.88-4.72A7.72,7.72,0,0,1,521,136a6.41,6.41,0,0,1,5.05-2.31q5.74,0,7,4.72l.1,2c-1.18.17-2.29.29-3.31.36s-2,.1-2.89.1c-.62,0-1.17,0-1.65,0s-.9,0-1.25-.09l-1.39-.2Zm5.64-6.7a2.59,2.59,0,0,0-.86,0,7.26,7.26,0,0,1-.72.1,4.41,4.41,0,0,1-.6,0,3.19,3.19,0,0,0-3.49,3l2.37-.53a2.38,2.38,0,0,0,.76.23,15.72,15.72,0,0,0,1.65.3,9.1,9.1,0,0,0,2.61-.14C529.84,137.25,529.27,136.25,528.41,135.81Zm-3.3,2.61.17,0C525.17,138.39,525.11,138.4,525.11,138.42Z" transform="translate(-236.42 -121.22)"/><path class="cls-3" d="M544.63,144.19c-.74-.63-1.58-1.31-2.52-2l-1.39-1c-.48-.44-.79-.66-.92-.66a.28.28,0,0,1,.06.2v1.81c0,2.16.08,3.25.23,3.27a5.23,5.23,0,0,0,.78.2,15,15,0,0,0,1.5.16l-.1,1.49a22.77,22.77,0,0,0-3-.2l-2.49,0c-.89,0-1.86,0-2.89.1v-1.39L535,146a1.61,1.61,0,0,0,1.06-.39,4.52,4.52,0,0,0,.12-1c0-.6.06-1.46.08-2.58a4.28,4.28,0,0,0-.07-1.25,8.3,8.3,0,0,0,.91.56,4.4,4.4,0,0,1,.91.63l-.33-.43c-.11-.16-.23-.32-.37-.5a3.92,3.92,0,0,1-.66-1.58c0-5.13-.12-8-.36-8.78a.59.59,0,0,0-.59-.43,2.79,2.79,0,0,0-.79-.3,2,2,0,0,0-.57.1l-.33-.76.66-.31.66-.28.66-.23a19.25,19.25,0,0,0,2.28-1,1.23,1.23,0,0,0,.48-.25l.41-.38h1.42a8.55,8.55,0,0,0-.53,3l0,3.13c0,.38-.07,2.29-.2,5.74l1.29-.67a11.73,11.73,0,0,0,1.32-.81c1.34-.86,2-1.44,2-1.75s-.5-.33-1.52-.4v-1.32l5,0a3.8,3.8,0,0,1,.61,0l.8.11.79.12a5.47,5.47,0,0,0,.61,0l.92,1.12a9.54,9.54,0,0,0-2.72.59,24,24,0,0,0-3.18,1.46l-3,1.65,4.92,3.89c.83.7,1.54,1.26,2.11,1.67s1,.69,1.32.87a6.12,6.12,0,0,0,2.21.66v1.49a11.72,11.72,0,0,0-1.3-.14c-.43,0-.88,0-1.34,0h-1.61c-1.52,0-2.89,0-4.1.1v-1.39l.42,0c.25,0,.62-.09,1.1-.18C546,145.41,545.37,144.83,544.63,144.19Z" transform="translate(-236.42 -121.22)"/><path class="cls-3" d="M557.29,142.51a2.35,2.35,0,0,0,.69,1.58,5,5,0,0,0,4.06,1.56,9.28,9.28,0,0,0,4.45-1.46l1.29.27a10.68,10.68,0,0,1-3.43,2.24,10.11,10.11,0,0,1-4,1,6.84,6.84,0,0,1-4.82-1.75,6.18,6.18,0,0,1-1.88-4.72,7.67,7.67,0,0,1,1.88-5.21,6.41,6.41,0,0,1,5.05-2.31c3.82,0,6.16,1.57,7,4.72l.1,2c-1.19.17-2.29.29-3.31.36s-2,.1-2.89.1c-.62,0-1.17,0-1.65,0s-.9,0-1.26-.09l-1.38-.2Zm5.64-6.7a2.59,2.59,0,0,0-.86,0,7.26,7.26,0,0,1-.72.1,4.41,4.41,0,0,1-.6,0,3.2,3.2,0,0,0-3.5,3l2.38-.53a2.38,2.38,0,0,0,.76.23,15.72,15.72,0,0,0,1.65.3,9.1,9.1,0,0,0,2.61-.14C564.36,137.25,563.79,136.25,562.93,135.81Zm-3.3,2.61.16,0C559.68,138.39,559.63,138.4,559.63,138.42Z" transform="translate(-236.42 -121.22)"/><path class="cls-3" d="M579.51,136.57a4.81,4.81,0,0,0-.44.4,4.21,4.21,0,0,1-.71.38l-.58.18a2.21,2.21,0,0,1,.36-.76c.24-.4.6-1,1.06-1.72l0,0c-1,.81-1.51,1.23-1.55,1.25a4.23,4.23,0,0,0-2.51,1c-.31.2-.48.4-.5.6l0,.92-.17,3a9.61,9.61,0,0,0,.37,3.9,1.2,1.2,0,0,0,.82.16l.56-.06h1.75l-.13,1.55h-.26l-1.82,0-7.13.2.07-1.29c.44-.06.8-.12,1.07-.18a1.72,1.72,0,0,0,.58-.18c.44-.2.73-1,.86-2.34,0-.38,0-.88.05-1.51s0-1.39,0-2.29a8,8,0,0,0-.23-2.57c-.13-.27-.45-.4-1-.4,0,0-.1,0-.17.12s-.14.16-.21.24a2.89,2.89,0,0,1-.24.25c-.07.08-.12.12-.14.12l-.86-1.88a7.75,7.75,0,0,0,6.1-2.87c.07,1,.1,1.93.1,2.83l.84-.39,1.08-.53.56-.23,1-.46c.24-.11.46-.23.67-.35l.58-.35.4.2.54.28q.35.18.81.48a1.6,1.6,0,0,1,.46,1.19c0,.22-.15.35-.46.39a2.83,2.83,0,0,0-.92.17C579.91,136.23,579.7,136.42,579.51,136.57Z" transform="translate(-236.42 -121.22)"/><path class="cls-3" d="M586.66,122.71l1,1.16c-2,1-3,1.87-3,2.57a1.05,1.05,0,0,0,.62,1l.4.1.13.1.07,0a2.18,2.18,0,0,1,1.25,2.05,2.27,2.27,0,0,1-.77,1.77,2.79,2.79,0,0,1-1.9.67,2.43,2.43,0,0,1-2.18-1.09,7.63,7.63,0,0,1-.66-3Q582.24,124.29,586.66,122.71Z" transform="translate(-236.42 -121.22)"/><path class="cls-3" d="M597.5,147.34a10.2,10.2,0,0,1-2.73.38,13.78,13.78,0,0,1-2-.19c-.85-.14-1.92-.35-3.22-.66.82-.22,1.22-.52,1.22-.89a1.69,1.69,0,0,0-.29-.59l-.23-.43a2.39,2.39,0,0,0-.43-1c-.22-.31-.41-.57-.55-.78a2,2,0,0,1-.28-.57,2.31,2.31,0,0,0,1.49.95.85.85,0,0,0,.59-.23,1.1,1.1,0,0,0,.53,1c.15.11.74.43,1.75,1a6.12,6.12,0,0,0,2.44.52,7,7,0,0,0,1.95-.29,1.15,1.15,0,0,0,.76-1.16c0-.79-.53-1.5-1.59-2.14l-1.05-.49q-.66-.3-1.65-.69a11.73,11.73,0,0,1-2.64-1.25,3,3,0,0,1-1.49-2.47c0-1.54,1-2.76,3.1-3.66a8.5,8.5,0,0,1,3.34-.62c.7,0,2,.09,3.92.28a.62.62,0,0,0-.06.26v.28a9,9,0,0,0,1,3.4l-2.21-2.18a1.66,1.66,0,0,1,0,.37q0,.36-.3.36a.53.53,0,0,1-.36-.1l-2-.76a4.07,4.07,0,0,0-.77-.26c-1.46,0-2.18.56-2.18,1.68a1,1,0,0,0,.36.82,5.49,5.49,0,0,0,1.07.62c.54.25,1.26.54,2.17.87a10.88,10.88,0,0,1,3.2,1.68,3.75,3.75,0,0,1,1.55,3,2.77,2.77,0,0,1-1.55,2.77A13.47,13.47,0,0,1,597.5,147.34Z" transform="translate(-236.42 -121.22)"/></svg>